<svg id="Layer_1" data-name="Layer 1" xmlns="http://www.w3.org/2000/svg" viewBox="0 0 1000.85 1000.85"><defs><style>.cls-1{fill:#e0e01e;}.cls-2{fill:#fff;}</style></defs><title>email</title><circle class="cls-1" cx="500.43" cy="500.43" r="500.43"/><path class="cls-2" d="M498.16,580.5c45.56,38.57,125.49,106.45,149,127.61,3.16,2.86,6.54,4.31,10.05,4.31a14.87,14.87,0,0,0,10-4.28c23.51-21.19,103.45-89.07,149-127.64a6.91,6.91,0,0,0,1-9.55,27.45,27.45,0,0,0-21.7-10.65H518.89A27.46,27.46,0,0,0,497.19,571,6.92,6.92,0,0,0,498.16,580.5Z" transform="translate(-156.77 -184.34)"/><path class="cls-2" d="M819.14,601.4a6.9,6.9,0,0,0-7.38,1c-50.51,42.83-115,97.72-135.28,116-11.38,10.28-27.18,10.28-38.6,0-21.62-19.48-94-81-135.26-116a6.92,6.92,0,0,0-11.39,5.28V781.57a27.69,27.69,0,0,0,27.66,27.66h276.6a27.69,27.69,0,0,0,27.66-27.66V607.68A6.92,6.92,0,0,0,819.14,601.4Z" transform="translate(-156.77 -184.34)"/></svg>