<svg height="512" viewBox="0 0 74 74" width="512" xmlns="http://www.w3.org/2000/svg"><g id="Numbers"><text fill="rgb(0,0,0)" font-family="ArialMT, Arial" font-size="18" transform="translate(31.995 -390.544)">6<tspan x="-5.005" y="124">16</tspan><tspan x="-5.005" y="248">26</tspan><tspan x="-5.005" y="372">36</tspan><tspan x="-5.005" y="496">46</tspan><tspan x="-5.005" y="620">56</tspan><tspan x="-5.005" y="744">66</tspan><tspan x="-5.005" y="868">76</tspan><tspan x="-5.005" y="992">86</tspan><tspan x="-5.005" y="1116">96</tspan><tspan x="-10.011" y="1240">106</tspan><tspan letter-spacing="-.074em" x="-9.343" y="1364">1</tspan><tspan x="-.668" y="1364">16</tspan><tspan x="-10.011" y="1488">126</tspan><tspan x="-10.011" y="1612">136</tspan><tspan x="-10.011" y="1736">146</tspan><tspan x="-10.011" y="1860">156</tspan><tspan x="-10.011" y="1984">166</tspan><tspan x="-10.011" y="2108">176</tspan><tspan x="-10.011" y="2232">186</tspan><tspan x="-10.011" y="2356">196</tspan><tspan x="-10.011" y="2480">206</tspan><tspan x="-10.011" y="2604">216</tspan><tspan x="-10.011" y="2728">226</tspan><tspan x="-10.011" y="2852">236</tspan><tspan x="-10.011" y="2976">246</tspan><tspan x="-10.011" y="3100">256</tspan><tspan x="-10.011" y="3224">266</tspan><tspan x="-10.011" y="3348">276</tspan><tspan x="-10.011" y="3472">286</tspan><tspan x="-10.011" y="3596">296</tspan></text></g><g id="_2_PT" data-name="2 PT"><path d="m62.5 72h-51.5a9.01 9.01 0 0 1 -9-9v-60a1 1 0 0 1 1-1h51a1 1 0 0 1 1 1v34h-2v-33h-49v59a7.008 7.008 0 0 0 7 7h51.5z"/><path d="m62.5 72a9.511 9.511 0 0 1 -9.5-9.5v-25.5a1 1 0 0 1 1-1h17a1 1 0 0 1 1 1v25.5a9.511 9.511 0 0 1 -9.5 9.5zm-7.5-34v24.5a7.5 7.5 0 0 0 15 0v-24.5z"/><path d="m48 23h-39a1 1 0 0 1 -1-1v-13a1 1 0 0 1 1-1h39a1 1 0 0 1 1 1v13a1 1 0 0 1 -1 1zm-38-2h37v-11h-37z"/><path d="m24 46h-15a1 1 0 0 1 -1-1v-16a1 1 0 0 1 1-1h15a1 1 0 0 1 1 1v16a1 1 0 0 1 -1 1zm-14-2h13v-14h-13z"/><path d="m30 28h19v2h-19z"/><path d="m30 36h19v2h-19z"/><path d="m30 44h19v2h-19z"/><path d="m8 52h41v2h-41z"/><path d="m8 60h41v2h-41z"/></g></svg>