<svg id="Capa_1" data-name="Capa 1" xmlns="http://www.w3.org/2000/svg" viewBox="0 0 770.55 770.55"><defs><style>.cls-1{fill:#1babe9;}.cls-2{fill:#fff;}</style></defs><title>twitter</title><circle class="cls-1" cx="385.28" cy="385.28" r="385.28"/><path class="cls-2" d="M764.89,531.6A149.54,149.54,0,0,1,723.46,543a71.47,71.47,0,0,0,31.63-39.74,143.46,143.46,0,0,1-45.59,17.4,71.89,71.89,0,0,0-124.36,49.17,74.28,74.28,0,0,0,1.66,16.39A203.48,203.48,0,0,1,438.61,511a71.91,71.91,0,0,0,22.1,96.09,71,71,0,0,1-32.49-8.86V599a72.24,72.24,0,0,0,57.61,70.65A71.8,71.8,0,0,1,467,672a63.3,63.3,0,0,1-13.62-1.23,72.58,72.58,0,0,0,67.18,50.09,144.46,144.46,0,0,1-89.14,30.66,133.37,133.37,0,0,1-17.2-1,202.37,202.37,0,0,0,110.29,32.27c132.3,0,204.63-109.59,204.63-204.59,0-3.17-.11-6.24-.27-9.29A143.48,143.48,0,0,0,764.89,531.6Z" transform="translate(-204.27 -255.06)"/></svg>